<svg xmlns="http://www.w3.org/2000/svg" viewBox="0 0 280 40" fill="none">
  <!-- Logo mark -->
  <rect width="40" height="40" rx="8" fill="#ff3333"/>
  <path d="M14 10c-3 0-4 2-4 4v4c0 2-1 3-3 3 2 0 3 1 3 3v4c0 2 1 4 4 4" stroke="white" stroke-width="2.5" stroke-linecap="round" fill="none"/>
  <path d="M26 10c3 0 4 2 4 4v4c0 2 1 3 3 3-2 0-3 1-3 3v4c0 2-1 4-4 4" stroke="white" stroke-width="2.5" stroke-linecap="round" fill="none"/>
  <circle cx="20" cy="21" r="2.5" fill="white"/>
  <!-- Wordmark -->
  <text x="52" y="28" font-family="'JetBrains Mono',monospace" font-size="22" font-weight="800" letter-spacing="2">
    <tspan fill="#ff3333">SLOP</tspan><tspan fill="#f5f5f5">SHOP</tspan><tspan fill="#666" font-weight="500" font-size="14">.GG</tspan>
  </text>
</svg>
